<?xml version="1.0" encoding="UTF-8"?>
<svg version="1.1" xmlns="http://www.w3.org/2000/svg" width="1090" height="2085">
<path d="M0 0 C357.39 0 714.78 0 1083 0 C1081.50697948 3.73255129 1080.04854911 6.82962441 1078.05078125 10.26171875 C1077.4578125 11.28458984 1076.86484375 12.30746094 1076.25390625 13.36132812 C1075.29291016 15.0077832 1075.29291016 15.0077832 1074.3125 16.6875 C1073.6376662 17.84940348 1072.96319344 19.01151671 1072.2890625 20.17382812 C1070.88892911 22.5872404 1069.48724981 24.9997446 1068.08447266 27.41162109 C1064.8750872 32.93267091 1061.68879776 38.46704371 1058.5 44 C1057.25139121 46.16411393 1056.00269298 48.32817625 1054.75390625 50.4921875 C1052.23930564 54.85065388 1049.72645339 59.21012191 1047.21484375 63.5703125 C1040.59858883 75.05306897 1033.95609989 86.51960901 1027.26928711 97.96142578 C1022.98755083 105.29312479 1018.73779993 112.64282981 1014.5 120 C1009.1208592 129.33863207 1003.70740553 138.65640317 998.26953125 147.9609375 C993.98777878 155.29283723 989.73789061 162.64267238 985.5 170 C980.1208592 179.33863207 974.70740553 188.65640317 969.26953125 197.9609375 C964.98777878 205.29283723 960.73789061 212.64267238 956.5 220 C951.1208592 229.33863207 945.70740553 238.65640317 940.26953125 247.9609375 C935.98777878 255.29283723 931.73789061 262.64267238 927.5 270 C922.1208592 279.33863207 916.70740553 288.65640317 911.26953125 297.9609375 C906.98777878 305.29283723 902.73789061 312.64267238 898.5 320 C893.1208592 329.33863207 887.70740553 338.65640317 882.26953125 347.9609375 C877.98777878 355.29283723 873.73789061 362.64267238 869.5 370 C864.1208592 379.33863207 858.70740553 388.65640317 853.26953125 397.9609375 C848.98777878 405.29283723 844.73789061 412.64267238 840.5 420 C835.1208592 429.33863207 829.70740553 438.65640317 824.26953125 447.9609375 C819.98777878 455.29283723 815.73789061 462.64267238 811.5 470 C806.1208592 479.33863207 800.70740553 488.65640317 795.26953125 497.9609375 C790.98777878 505.29283723 786.73789061 512.64267238 782.5 520 C777.1208592 529.33863207 771.70740553 538.65640317 766.26953125 547.9609375 C761.98777878 555.29283723 757.73789061 562.64267238 753.5 570 C748.69148156 578.34798459 743.86094317 586.68243184 739 595 C731.61585107 607.63743454 724.30509865 620.31675298 717 633 C709.12419276 646.6741218 701.23144154 660.33736974 693.26928711 673.96142578 C688.98755083 681.29312479 684.73779993 688.64282981 680.5 696 C675.1208592 705.33863207 669.70740553 714.65640317 664.26953125 723.9609375 C659.98777878 731.29283723 655.73789061 738.64267238 651.5 746 C646.1208592 755.33863207 640.70740553 764.65640317 635.26953125 773.9609375 C630.98777878 781.29283723 626.73789061 788.64267238 622.5 796 C617.1208592 805.33863207 611.70740553 814.65640317 606.26953125 823.9609375 C601.98777878 831.29283723 597.73789061 838.64267238 593.5 846 C588.12036183 855.33949555 582.70785149 864.65898359 577.26733398 873.96313477 C573.63339378 880.18320443 570.02946083 886.41972366 566.44165039 892.66650391 C558.4654458 906.55050925 550.28886661 920.30071564 542 934 C539.16041369 931.33859868 537.13148439 928.82741435 535.2578125 925.421875 C534.75652832 924.52106201 534.25524414 923.62024902 533.73876953 922.69213867 C533.20622559 921.72123291 532.67368164 920.75032715 532.125 919.75 C530.95981044 917.65672919 529.79309575 915.56430673 528.625 913.47265625 C528.02558594 912.39773926 527.42617188 911.32282227 526.80859375 910.21533203 C523.97184175 905.17213226 521.05169563 900.17887952 518.125 895.1875 C513.21918556 886.80918407 508.34485233 878.4137225 503.5 870 C498.69160872 861.65194352 493.86102883 853.3175166 489 845 C483.50054464 835.5900967 478.04550804 826.15529437 472.60546875 816.7109375 C468.42650872 809.4604851 464.22259494 802.22511731 460 795 C454.50054464 785.5900967 449.04550804 776.15529437 443.60546875 766.7109375 C439.42650872 759.4604851 435.22259494 752.22511731 431 745 C425.50054464 735.5900967 420.04550804 726.15529437 414.60546875 716.7109375 C410.42650872 709.4604851 406.22259494 702.22511731 402 695 C396.50054464 685.5900967 391.04550804 676.15529437 385.60546875 666.7109375 C381.42650872 659.4604851 377.22259494 652.22511731 373 645 C367.50054464 635.5900967 362.04550804 626.15529437 356.60546875 616.7109375 C352.42650872 609.4604851 348.22259494 602.22511731 344 595 C338.50054464 585.5900967 333.04550804 576.15529437 327.60546875 566.7109375 C323.42650872 559.4604851 319.22259494 552.22511731 315 545 C309.50054464 535.5900967 304.04550804 526.15529437 298.60546875 516.7109375 C294.42650872 509.4604851 290.22259494 502.22511731 286 495 C280.50054464 485.5900967 275.04550804 476.15529437 269.60546875 466.7109375 C265.42650842 459.46048459 261.22252011 452.22516137 257 445 C248.97718322 431.26953183 241.04141672 417.48921914 233.10449219 403.70898438 C225.85966952 391.1323608 218.5926719 378.56963043 211.26928711 366.03857422 C206.34948718 357.61430661 201.47477862 349.16446104 196.60546875 340.7109375 C192.42650872 333.4604851 188.22259494 326.22511731 184 319 C178.50054464 309.5900967 173.04550804 300.15529437 167.60546875 290.7109375 C163.42650872 283.4604851 159.22259494 276.22511731 155 269 C149.50054464 259.5900967 144.04550804 250.15529437 138.60546875 240.7109375 C134.42650872 233.4604851 130.22259494 226.22511731 126 219 C120.50054464 209.5900967 115.04550804 200.15529437 109.60546875 190.7109375 C105.42650872 183.4604851 101.22259494 176.22511731 97 169 C91.50054464 159.5900967 86.04550804 150.15529437 80.60546875 140.7109375 C76.42650872 133.4604851 72.22259494 126.22511731 68 119 C62.50054464 109.5900967 57.04550804 100.15529437 51.60546875 90.7109375 C47.42650872 83.4604851 43.22259494 76.22511731 39 69 C34.13897048 60.68248222 29.30856304 52.34795837 24.5 44 C19.43959527 35.21571405 14.3583902 26.44397619 9.25 17.6875 C8.66541016 16.68525391 8.08082031 15.68300781 7.47851562 14.65039062 C4.45430092 9.45475251 4.45430092 9.45475251 1.32324219 4.32348633 C0 2 0 2 0 0 Z " fill="#000000" transform="translate(4,1149)"/>
</svg>
