<?xml version="1.0" encoding="UTF-8"?>
<svg version="1.1" xmlns="http://www.w3.org/2000/svg" width="1090" height="2085">
<path d="M0 0 C2.67813752 2.4150749 4.3043511 5.01052912 6.08203125 8.13671875 C6.67693359 9.17634766 7.27183594 10.21597656 7.88476562 11.28710938 C8.52091797 12.40923828 9.15707031 13.53136719 9.8125 14.6875 C10.82652174 16.46333743 11.84230529 18.23815984 12.85812378 20.01296997 C13.55246591 21.22641774 14.24624725 22.44018655 14.93948364 23.65426636 C18.25491901 29.45849256 21.6230788 35.23135466 25 41 C30.50019151 50.40946991 35.95449497 59.84471085 41.39453125 69.2890625 C45.57349128 76.5395149 49.77740506 83.77488269 54 91 C59.49945536 100.4099033 64.95449196 109.84470563 70.39453125 119.2890625 C74.57349128 126.5395149 78.77740506 133.77488269 83 141 C88.49945536 150.4099033 93.95449196 159.84470563 99.39453125 169.2890625 C103.57349158 176.53951541 107.77747989 183.77483863 112 191 C120.02281678 204.73046817 127.95858328 218.51078086 135.89550781 232.29101562 C143.14033048 244.8676392 150.4073281 257.43036957 157.73071289 269.96142578 C162.65051282 278.38569339 167.52522138 286.83553896 172.39453125 295.2890625 C176.57349128 302.5395149 180.77740506 309.77488269 185 317 C190.49945536 326.4099033 195.95449196 335.84470563 201.39453125 345.2890625 C205.57349128 352.5395149 209.77740506 359.77488269 214 367 C219.49945536 376.4099033 224.95449196 385.84470563 230.39453125 395.2890625 C234.57349128 402.5395149 238.77740506 409.77488269 243 417 C248.49945536 426.4099033 253.95449196 435.84470563 259.39453125 445.2890625 C263.57349128 452.5395149 267.77740506 459.77488269 272 467 C277.49945536 476.4099033 282.95449196 485.84470563 288.39453125 495.2890625 C292.57349128 502.5395149 296.77740506 509.77488269 301 517 C306.49945536 526.4099033 311.95449196 535.84470563 317.39453125 545.2890625 C321.57349128 552.5395149 325.77740506 559.77488269 330 567 C335.49945536 576.4099033 340.95449196 585.84470563 346.39453125 595.2890625 C350.57349128 602.5395149 354.77740506 609.77488269 359 617 C364.49945536 626.4099033 369.95449196 635.84470563 375.39453125 645.2890625 C379.57349128 652.5395149 383.77740506 659.77488269 388 667 C393.49945536 676.4099033 398.95449196 685.84470563 404.39453125 695.2890625 C408.57349128 702.5395149 412.77740506 709.77488269 417 717 C422.49945536 726.4099033 427.95449196 735.84470563 433.39453125 745.2890625 C437.57349128 752.5395149 441.77740506 759.77488269 446 767 C451.49945536 776.4099033 456.95449196 785.84470563 462.39453125 795.2890625 C466.57349128 802.5395149 470.77740506 809.77488269 475 817 C480.49945536 826.4099033 485.95449196 835.84470563 491.39453125 845.2890625 C495.57349128 852.5395149 499.77740506 859.77488269 504 867 C509.49032637 876.39428304 514.93928898 885.81173302 520.3659668 895.24291992 C523.55191122 900.77504104 526.75435646 906.29654797 529.98828125 911.80078125 C530.63023438 912.89455078 531.2721875 913.98832031 531.93359375 915.11523438 C533.15586085 917.19512133 534.38097164 919.27334066 535.609375 921.34960938 C536.43115234 922.74856445 536.43115234 922.74856445 537.26953125 924.17578125 C537.75010986 924.98958252 538.23068848 925.80338379 538.72583008 926.6418457 C540 929 540 929 542 934 C184.61 934 -172.78 934 -541 934 C-539.60210955 930.50527389 -538.28283805 927.55006512 -536.453125 924.32421875 C-535.94539551 923.42662842 -535.43766602 922.52903809 -534.91455078 921.60424805 C-534.36524902 920.64172119 -533.81594727 919.67919434 -533.25 918.6875 C-532.67362793 917.67276611 -532.09725586 916.65803223 -531.50341797 915.61254883 C-526.27103185 906.42443359 -520.94285446 897.2930437 -515.6015625 888.16796875 C-511.87369234 881.79434912 -508.18456223 875.39872633 -504.5 869 C-499.12100102 859.66128676 -493.707405 850.34359592 -488.26953125 841.0390625 C-483.98777878 833.70716277 -479.73789061 826.35732762 -475.5 819 C-470.1208592 809.66136793 -464.70740553 800.34359683 -459.26953125 791.0390625 C-454.98777878 783.70716277 -450.73789061 776.35732762 -446.5 769 C-441.1208592 759.66136793 -435.70740553 750.34359683 -430.26953125 741.0390625 C-425.98777878 733.70716277 -421.73789061 726.35732762 -417.5 719 C-412.69148156 710.65201541 -407.86094317 702.31756816 -403 694 C-395.61585107 681.36256546 -388.30509865 668.68324702 -381 656 C-373.12419276 642.3258782 -365.23144154 628.66263026 -357.26928711 615.03857422 C-352.98755083 607.70687521 -348.73779993 600.35717019 -344.5 593 C-339.1208592 583.66136793 -333.70740553 574.34359683 -328.26953125 565.0390625 C-323.98777878 557.70716277 -319.73789061 550.35732762 -315.5 543 C-310.1208592 533.66136793 -304.70740553 524.34359683 -299.26953125 515.0390625 C-294.98777878 507.70716277 -290.73789061 500.35732762 -286.5 493 C-281.1208592 483.66136793 -275.70740553 474.34359683 -270.26953125 465.0390625 C-265.98777878 457.70716277 -261.73789061 450.35732762 -257.5 443 C-252.1208592 433.66136793 -246.70740553 424.34359683 -241.26953125 415.0390625 C-236.98777878 407.70716277 -232.73789061 400.35732762 -228.5 393 C-223.1208592 383.66136793 -217.70740553 374.34359683 -212.26953125 365.0390625 C-207.98777878 357.70716277 -203.73789061 350.35732762 -199.5 343 C-194.1208592 333.66136793 -188.70740553 324.34359683 -183.26953125 315.0390625 C-178.98777878 307.70716277 -174.73789061 300.35732762 -170.5 293 C-165.1208592 283.66136793 -159.70740553 274.34359683 -154.26953125 265.0390625 C-149.98777878 257.70716277 -145.73789061 250.35732762 -141.5 243 C-136.1208592 233.66136793 -130.70740553 224.34359683 -125.26953125 215.0390625 C-120.98777878 207.70716277 -116.73789061 200.35732762 -112.5 193 C-107.1208592 183.66136793 -101.70740553 174.34359683 -96.26953125 165.0390625 C-91.98777878 157.70716277 -87.73789061 150.35732762 -83.5 143 C-78.1208592 133.66136793 -72.70740553 124.34359683 -67.26953125 115.0390625 C-62.98777878 107.70716277 -58.73789061 100.35732762 -54.5 93 C-49.1208592 83.66136793 -43.70740553 74.34359683 -38.26953125 65.0390625 C-33.98777795 57.70716135 -29.73810469 50.35720536 -25.5 43 C-20.45197606 34.24156974 -15.39481755 25.48858397 -10.3125 16.75 C-9.73628906 15.75613281 -9.16007813 14.76226562 -8.56640625 13.73828125 C-5.84051057 9.058827 -3.0747927 4.45882348 0 0 Z " fill="#000000" transform="translate(545,2)"/>
</svg>
