<?xml version="1.0" encoding="UTF-8"?>
<svg version="1.1" xmlns="http://www.w3.org/2000/svg" width="1090" height="2085">
<path d="M0 0 C357.39 0 714.78 0 1083 0 C1081.50697948 3.73255129 1080.04854911 6.82962441 1078.05078125 10.26171875 C1077.4578125 11.28458984 1076.86484375 12.30746094 1076.25390625 13.36132812 C1075.29291016 15.0077832 1075.29291016 15.0077832 1074.3125 16.6875 C1073.6376662 17.84940348 1072.96319344 19.01151671 1072.2890625 20.17382812 C1070.88892911 22.5872404 1069.48724981 24.9997446 1068.08447266 27.41162109 C1064.8750872 32.93267091 1061.68879776 38.46704371 1058.5 44 C1057.25139121 46.16411393 1056.00269298 48.32817625 1054.75390625 50.4921875 C1052.23930564 54.85065388 1049.72645339 59.21012191 1047.21484375 63.5703125 C1040.59858883 75.05306897 1033.95609989 86.51960901 1027.26928711 97.96142578 C1022.98755083 105.29312479 1018.73779993 112.64282981 1014.5 120 C1009.1208592 129.33863207 1003.70740553 138.65640317 998.26953125 147.9609375 C993.98777878 155.29283723 989.73789061 162.64267238 985.5 170 C980.1208592 179.33863207 974.70740553 188.65640317 969.26953125 197.9609375 C964.98777878 205.29283723 960.73789061 212.64267238 956.5 220 C951.1208592 229.33863207 945.70740553 238.65640317 940.26953125 247.9609375 C935.98777878 255.29283723 931.73789061 262.64267238 927.5 270 C922.1208592 279.33863207 916.70740553 288.65640317 911.26953125 297.9609375 C906.98777878 305.29283723 902.73789061 312.64267238 898.5 320 C893.1208592 329.33863207 887.70740553 338.65640317 882.26953125 347.9609375 C877.98777878 355.29283723 873.73789061 362.64267238 869.5 370 C864.1208592 379.33863207 858.70740553 388.65640317 853.26953125 397.9609375 C848.98777878 405.29283723 844.73789061 412.64267238 840.5 420 C835.1208592 429.33863207 829.70740553 438.65640317 824.26953125 447.9609375 C819.98777878 455.29283723 815.73789061 462.64267238 811.5 470 C806.1208592 479.33863207 800.70740553 488.65640317 795.26953125 497.9609375 C790.98777878 505.29283723 786.73789061 512.64267238 782.5 520 C777.1208592 529.33863207 771.70740553 538.65640317 766.26953125 547.9609375 C761.98777878 555.29283723 757.73789061 562.64267238 753.5 570 C748.69148156 578.34798459 743.86094317 586.68243184 739 595 C731.61585107 607.63743454 724.30509865 620.31675298 717 633 C709.12419276 646.6741218 701.23144154 660.33736974 693.26928711 673.96142578 C688.98755083 681.29312479 684.73779993 688.64282981 680.5 696 C675.1208592 705.33863207 669.70740553 714.65640317 664.26953125 723.9609375 C659.98777878 731.29283723 655.73789061 738.64267238 651.5 746 C646.1208592 755.33863207 640.70740553 764.65640317 635.26953125 773.9609375 C630.98777878 781.29283723 626.73789061 788.64267238 622.5 796 C617.1208592 805.33863207 611.70740553 814.65640317 606.26953125 823.9609375 C601.98777878 831.29283723 597.73789061 838.64267238 593.5 846 C588.12036183 855.33949555 582.70785149 864.65898359 577.26733398 873.96313477 C573.63339378 880.18320443 570.02946083 886.41972366 566.44165039 892.66650391 C558.4654458 906.55050925 550.28886661 920.30071564 542 934 C539.16041369 931.33859868 537.13148439 928.82741435 535.2578125 925.421875 C534.75652832 924.52106201 534.25524414 923.62024902 533.73876953 922.69213867 C533.20622559 921.72123291 532.67368164 920.75032715 532.125 919.75 C530.95981044 917.65672919 529.79309575 915.56430673 528.625 913.47265625 C528.02558594 912.39773926 527.42617188 911.32282227 526.80859375 910.21533203 C523.97184175 905.17213226 521.05169563 900.17887952 518.125 895.1875 C513.21918556 886.80918407 508.34485233 878.4137225 503.5 870 C498.69160872 861.65194352 493.86102883 853.3175166 489 845 C483.50054464 835.5900967 478.04550804 826.15529437 472.60546875 816.7109375 C468.42650872 809.4604851 464.22259494 802.22511731 460 795 C454.50054464 785.5900967 449.04550804 776.15529437 443.60546875 766.7109375 C439.42650872 759.4604851 435.22259494 752.22511731 431 745 C425.50054464 735.5900967 420.04550804 726.15529437 414.60546875 716.7109375 C410.42650872 709.4604851 406.22259494 702.22511731 402 695 C396.50054464 685.5900967 391.04550804 676.15529437 385.60546875 666.7109375 C381.42650872 659.4604851 377.22259494 652.22511731 373 645 C367.50054464 635.5900967 362.04550804 626.15529437 356.60546875 616.7109375 C352.42650872 609.4604851 348.22259494 602.22511731 344 595 C338.50054464 585.5900967 333.04550804 576.15529437 327.60546875 566.7109375 C323.42650872 559.4604851 319.22259494 552.22511731 315 545 C309.50054464 535.5900967 304.04550804 526.15529437 298.60546875 516.7109375 C294.42650872 509.4604851 290.22259494 502.22511731 286 495 C280.50054464 485.5900967 275.04550804 476.15529437 269.60546875 466.7109375 C265.42650842 459.46048459 261.22252011 452.22516137 257 445 C248.97718322 431.26953183 241.04141672 417.48921914 233.10449219 403.70898438 C225.85966952 391.1323608 218.5926719 378.56963043 211.26928711 366.03857422 C206.34948718 357.61430661 201.47477862 349.16446104 196.60546875 340.7109375 C192.42650872 333.4604851 188.22259494 326.22511731 184 319 C178.50054464 309.5900967 173.04550804 300.15529437 167.60546875 290.7109375 C163.42650872 283.4604851 159.22259494 276.22511731 155 269 C149.50054464 259.5900967 144.04550804 250.15529437 138.60546875 240.7109375 C134.42650872 233.4604851 130.22259494 226.22511731 126 219 C120.50054464 209.5900967 115.04550804 200.15529437 109.60546875 190.7109375 C105.42650872 183.4604851 101.22259494 176.22511731 97 169 C91.50054464 159.5900967 86.04550804 150.15529437 80.60546875 140.7109375 C76.42650872 133.4604851 72.22259494 126.22511731 68 119 C62.50054464 109.5900967 57.04550804 100.15529437 51.60546875 90.7109375 C47.42650872 83.4604851 43.22259494 76.22511731 39 69 C34.13897048 60.68248222 29.30856304 52.34795837 24.5 44 C19.43959527 35.21571405 14.3583902 26.44397619 9.25 17.6875 C8.66541016 16.68525391 8.08082031 15.68300781 7.47851562 14.65039062 C4.45430092 9.45475251 4.45430092 9.45475251 1.32324219 4.32348633 C0 2 0 2 0 0 Z " fill="#000000" transform="translate(4,1149)"/>
<path d="M0 0 C2.67813752 2.4150749 4.3043511 5.01052912 6.08203125 8.13671875 C6.67693359 9.17634766 7.27183594 10.21597656 7.88476562 11.28710938 C8.52091797 12.40923828 9.15707031 13.53136719 9.8125 14.6875 C10.82652174 16.46333743 11.84230529 18.23815984 12.85812378 20.01296997 C13.55246591 21.22641774 14.24624725 22.44018655 14.93948364 23.65426636 C18.25491901 29.45849256 21.6230788 35.23135466 25 41 C30.50019151 50.40946991 35.95449497 59.84471085 41.39453125 69.2890625 C45.57349128 76.5395149 49.77740506 83.77488269 54 91 C59.49945536 100.4099033 64.95449196 109.84470563 70.39453125 119.2890625 C74.57349128 126.5395149 78.77740506 133.77488269 83 141 C88.49945536 150.4099033 93.95449196 159.84470563 99.39453125 169.2890625 C103.57349158 176.53951541 107.77747989 183.77483863 112 191 C120.02281678 204.73046817 127.95858328 218.51078086 135.89550781 232.29101562 C143.14033048 244.8676392 150.4073281 257.43036957 157.73071289 269.96142578 C162.65051282 278.38569339 167.52522138 286.83553896 172.39453125 295.2890625 C176.57349128 302.5395149 180.77740506 309.77488269 185 317 C190.49945536 326.4099033 195.95449196 335.84470563 201.39453125 345.2890625 C205.57349128 352.5395149 209.77740506 359.77488269 214 367 C219.49945536 376.4099033 224.95449196 385.84470563 230.39453125 395.2890625 C234.57349128 402.5395149 238.77740506 409.77488269 243 417 C248.49945536 426.4099033 253.95449196 435.84470563 259.39453125 445.2890625 C263.57349128 452.5395149 267.77740506 459.77488269 272 467 C277.49945536 476.4099033 282.95449196 485.84470563 288.39453125 495.2890625 C292.57349128 502.5395149 296.77740506 509.77488269 301 517 C306.49945536 526.4099033 311.95449196 535.84470563 317.39453125 545.2890625 C321.57349128 552.5395149 325.77740506 559.77488269 330 567 C335.49945536 576.4099033 340.95449196 585.84470563 346.39453125 595.2890625 C350.57349128 602.5395149 354.77740506 609.77488269 359 617 C364.49945536 626.4099033 369.95449196 635.84470563 375.39453125 645.2890625 C379.57349128 652.5395149 383.77740506 659.77488269 388 667 C393.49945536 676.4099033 398.95449196 685.84470563 404.39453125 695.2890625 C408.57349128 702.5395149 412.77740506 709.77488269 417 717 C422.49945536 726.4099033 427.95449196 735.84470563 433.39453125 745.2890625 C437.57349128 752.5395149 441.77740506 759.77488269 446 767 C451.49945536 776.4099033 456.95449196 785.84470563 462.39453125 795.2890625 C466.57349128 802.5395149 470.77740506 809.77488269 475 817 C480.49945536 826.4099033 485.95449196 835.84470563 491.39453125 845.2890625 C495.57349128 852.5395149 499.77740506 859.77488269 504 867 C509.49032637 876.39428304 514.93928898 885.81173302 520.3659668 895.24291992 C523.55191122 900.77504104 526.75435646 906.29654797 529.98828125 911.80078125 C530.63023438 912.89455078 531.2721875 913.98832031 531.93359375 915.11523438 C533.15586085 917.19512133 534.38097164 919.27334066 535.609375 921.34960938 C536.43115234 922.74856445 536.43115234 922.74856445 537.26953125 924.17578125 C537.75010986 924.98958252 538.23068848 925.80338379 538.72583008 926.6418457 C540 929 540 929 542 934 C184.61 934 -172.78 934 -541 934 C-539.60210955 930.50527389 -538.28283805 927.55006512 -536.453125 924.32421875 C-535.94539551 923.42662842 -535.43766602 922.52903809 -534.91455078 921.60424805 C-534.36524902 920.64172119 -533.81594727 919.67919434 -533.25 918.6875 C-532.67362793 917.67276611 -532.09725586 916.65803223 -531.50341797 915.61254883 C-526.27103185 906.42443359 -520.94285446 897.2930437 -515.6015625 888.16796875 C-511.87369234 881.79434912 -508.18456223 875.39872633 -504.5 869 C-499.12100102 859.66128676 -493.707405 850.34359592 -488.26953125 841.0390625 C-483.98777878 833.70716277 -479.73789061 826.35732762 -475.5 819 C-470.1208592 809.66136793 -464.70740553 800.34359683 -459.26953125 791.0390625 C-454.98777878 783.70716277 -450.73789061 776.35732762 -446.5 769 C-441.1208592 759.66136793 -435.70740553 750.34359683 -430.26953125 741.0390625 C-425.98777878 733.70716277 -421.73789061 726.35732762 -417.5 719 C-412.69148156 710.65201541 -407.86094317 702.31756816 -403 694 C-395.61585107 681.36256546 -388.30509865 668.68324702 -381 656 C-373.12419276 642.3258782 -365.23144154 628.66263026 -357.26928711 615.03857422 C-352.98755083 607.70687521 -348.73779993 600.35717019 -344.5 593 C-339.1208592 583.66136793 -333.70740553 574.34359683 -328.26953125 565.0390625 C-323.98777878 557.70716277 -319.73789061 550.35732762 -315.5 543 C-310.1208592 533.66136793 -304.70740553 524.34359683 -299.26953125 515.0390625 C-294.98777878 507.70716277 -290.73789061 500.35732762 -286.5 493 C-281.1208592 483.66136793 -275.70740553 474.34359683 -270.26953125 465.0390625 C-265.98777878 457.70716277 -261.73789061 450.35732762 -257.5 443 C-252.1208592 433.66136793 -246.70740553 424.34359683 -241.26953125 415.0390625 C-236.98777878 407.70716277 -232.73789061 400.35732762 -228.5 393 C-223.1208592 383.66136793 -217.70740553 374.34359683 -212.26953125 365.0390625 C-207.98777878 357.70716277 -203.73789061 350.35732762 -199.5 343 C-194.1208592 333.66136793 -188.70740553 324.34359683 -183.26953125 315.0390625 C-178.98777878 307.70716277 -174.73789061 300.35732762 -170.5 293 C-165.1208592 283.66136793 -159.70740553 274.34359683 -154.26953125 265.0390625 C-149.98777878 257.70716277 -145.73789061 250.35732762 -141.5 243 C-136.1208592 233.66136793 -130.70740553 224.34359683 -125.26953125 215.0390625 C-120.98777878 207.70716277 -116.73789061 200.35732762 -112.5 193 C-107.1208592 183.66136793 -101.70740553 174.34359683 -96.26953125 165.0390625 C-91.98777878 157.70716277 -87.73789061 150.35732762 -83.5 143 C-78.1208592 133.66136793 -72.70740553 124.34359683 -67.26953125 115.0390625 C-62.98777878 107.70716277 -58.73789061 100.35732762 -54.5 93 C-49.1208592 83.66136793 -43.70740553 74.34359683 -38.26953125 65.0390625 C-33.98777795 57.70716135 -29.73810469 50.35720536 -25.5 43 C-20.45197606 34.24156974 -15.39481755 25.48858397 -10.3125 16.75 C-9.73628906 15.75613281 -9.16007813 14.76226562 -8.56640625 13.73828125 C-5.84051057 9.058827 -3.0747927 4.45882348 0 0 Z " fill="#000000" transform="translate(545,2)"/>
</svg>
