<svg xmlns="http://www.w3.org/2000/svg" version="1.1" xmlns:xlink="http://www.w3.org/1999/xlink" xmlns:svgjs="http://svgjs.dev/svgjs" width="1500" height="1500" viewBox="0 0 1500 1500"><rect width="1500" height="1500" fill="#ffffff"></rect><g transform="matrix(0.6666666666666666,0,0,0.6666666666666666,249.78425655976667,249.78425655976673)"><svg viewBox="0 0 343 343" data-background-color="#ffffff" preserveAspectRatio="xMidYMid meet" height="1500" width="1500" xmlns="http://www.w3.org/2000/svg" xmlns:xlink="http://www.w3.org/1999/xlink"><g id="tight-bounds" transform="matrix(1,0,0,1,0.0740000000000407,0.07400000000001228)"><svg viewBox="0 0 342.85155851775386 342.85155851775386" height="342.85155851775386" width="342.85155851775386"><g><svg></svg></g><g><svg viewBox="0 0 342.85155851775386 342.85155851775386" height="342.85155851775386" width="342.85155851775386"><g><path d="M0 171.426c0-94.676 76.75-171.426 171.426-171.426 94.676 0 171.426 76.75 171.426 171.426 0 94.676-76.75 171.426-171.426 171.426-94.676 0-171.426-76.75-171.426-171.426zM171.426 338.369c92.2 0 166.943-74.743 166.943-166.943 0-92.2-74.743-166.943-166.943-166.943-92.2 0-166.943 74.743-166.943 166.943 0 92.2 74.743 166.943 166.943 166.943z" data-fill-palette-color="tertiary" fill="#07326a" stroke="transparent"></path><ellipse rx="164.56874808852186" ry="164.56874808852186" cx="171.42577925887693" cy="171.42577925887693" fill="#07326a" stroke="transparent" stroke-width="0" fill-opacity="1" data-fill-palette-color="tertiary"></ellipse></g><g transform="matrix(1,0,0,1,64.84655864529837,106.35792537635709)"><svg viewBox="0 0 213.1584412271571 130.13570776503968" height="130.13570776503968" width="213.1584412271571"><g><svg viewBox="0 0 213.1584412271571 130.13570776503968" height="130.13570776503968" width="213.1584412271571"><g><svg viewBox="0 0 213.1584412271571 130.13570776503968" height="130.13570776503968" width="213.1584412271571"><g transform="matrix(1,0,0,1,0,80.42908818446232)"><svg viewBox="0 0 213.1584412271571 49.706619580577375" height="49.706619580577375" width="213.1584412271571"><g id="textblocktransform"><svg viewBox="0 0 213.1584412271571 49.706619580577375" height="49.706619580577375" width="213.1584412271571" id="textblock"><g><svg viewBox="0 0 213.1584412271571 49.706619580577375" height="49.706619580577375" width="213.1584412271571"><g transform="matrix(1,0,0,1,0,0)"><svg width="213.1584412271571" viewBox="3.49 -35.5 154.31 35.99" height="49.706619580577375" data-palette-color="#f1f7f9"><path d="M23.19-8.11L23.19-8.11Q23.19-6.32 22.52-4.76 21.85-3.2 20.68-2.03 19.51-0.85 17.94-0.18 16.38 0.49 14.6 0.49L14.6 0.49 12.11 0.49Q10.33 0.49 8.75-0.18 7.18-0.85 6.01-2.03 4.83-3.2 4.16-4.76 3.49-6.32 3.49-8.11L3.49-8.11 3.49-26.9Q3.49-28.69 4.16-30.25 4.83-31.81 6.01-32.98 7.18-34.16 8.75-34.83 10.33-35.5 12.11-35.5L12.11-35.5 14.6-35.5Q16.38-35.5 17.94-34.83 19.51-34.16 20.68-32.98 21.85-31.81 22.52-30.25 23.19-28.69 23.19-26.9L23.19-26.9 23.19-25.49 20.04-25 20.04-26.9Q20.04-28.08 19.6-29.09 19.17-30.1 18.41-30.86 17.65-31.62 16.64-32.06 15.63-32.5 14.45-32.5L14.45-32.5 12.26-32.5Q11.08-32.5 10.07-32.06 9.06-31.62 8.29-30.86 7.52-30.1 7.08-29.09 6.64-28.08 6.64-26.9L6.64-26.9 6.64-8.11Q6.64-6.93 7.08-5.92 7.52-4.91 8.29-4.14 9.06-3.37 10.07-2.93 11.08-2.49 12.26-2.49L12.26-2.49 14.45-2.49Q15.63-2.49 16.64-2.93 17.65-3.37 18.41-4.14 19.17-4.91 19.6-5.92 20.04-6.93 20.04-8.11L20.04-8.11 20.04-10.01 23.19-9.5 23.19-8.11ZM45.9 0L44.89 0 43.23-2.54Q42.21-1.15 40.67-0.33 39.13 0.49 37.3 0.49L37.3 0.49 36.55 0.49Q35.03 0.49 33.69-0.09 32.35-0.66 31.35-1.66 30.34-2.66 29.77-4 29.2-5.35 29.2-6.86L29.2-6.86 29.2-25 32.2-25 32.2-6.69Q32.2-5.79 32.54-4.99 32.88-4.2 33.47-3.61 34.06-3.03 34.85-2.69 35.64-2.34 36.55-2.34L36.55-2.34 38.55-2.34Q39.45-2.34 40.24-2.69 41.04-3.03 41.62-3.61 42.21-4.2 42.55-4.99 42.89-5.79 42.89-6.69L42.89-6.69 42.89-25 45.9-25 45.9 0ZM68.6-6.86L68.6-6.86Q68.6-5.35 68.02-4 67.45-2.66 66.45-1.66 65.45-0.66 64.11-0.09 62.76 0.49 61.25 0.49L61.25 0.49 59.25 0.49Q57.73 0.49 56.39-0.09 55.05-0.66 54.05-1.66 53.05-2.66 52.47-4 51.9-5.35 51.9-6.86L51.9-6.86 51.9-35.01 54.9-35.01 54.9-22.9Q55.93-24.12 57.37-24.8 58.81-25.49 60.49-25.49L60.49-25.49 61.25-25.49Q62.76-25.49 64.11-24.91 65.45-24.34 66.45-23.34 67.45-22.34 68.02-21 68.6-19.65 68.6-18.14L68.6-18.14 68.6-6.86ZM65.6-6.69L65.6-18.31Q65.6-19.21 65.25-20.01 64.91-20.8 64.33-21.39 63.74-21.97 62.95-22.31 62.15-22.66 61.25-22.66L61.25-22.66 59.25-22.66Q58.34-22.66 57.55-22.31 56.76-21.97 56.17-21.39 55.59-20.8 55.24-20.01 54.9-19.21 54.9-18.31L54.9-18.31 54.9-6.69Q54.9-5.79 55.24-4.99 55.59-4.2 56.17-3.61 56.76-3.03 57.55-2.69 58.34-2.34 59.25-2.34L59.25-2.34 61.25-2.34Q62.15-2.34 62.95-2.69 63.74-3.03 64.33-3.61 64.91-4.2 65.25-4.99 65.6-5.79 65.6-6.69L65.6-6.69ZM91.3-6.86L91.3-6.86Q91.3-5.35 90.73-4 90.15-2.66 89.15-1.66 88.15-0.66 86.81-0.09 85.47 0.49 83.95 0.49L83.95 0.49 81.95 0.49Q80.44 0.49 79.09-0.09 77.75-0.66 76.75-1.66 75.75-2.66 75.18-4 74.6-5.35 74.6-6.86L74.6-6.86 74.6-18.14Q74.6-19.65 75.18-21 75.75-22.34 76.75-23.34 77.75-24.34 79.09-24.91 80.44-25.49 81.95-25.49L81.95-25.49 83.95-25.49Q85.47-25.49 86.81-24.91 88.15-24.34 89.15-23.34 90.15-22.34 90.73-21 91.3-19.65 91.3-18.14L91.3-18.14 91.3-12.26 77.6-12.26 77.6-6.69Q77.6-5.79 77.95-4.99 78.29-4.2 78.87-3.61 79.46-3.03 80.25-2.69 81.05-2.34 81.95-2.34L81.95-2.34 83.95-2.34Q84.86-2.34 85.65-2.69 86.44-3.03 87.03-3.61 87.61-4.2 87.96-4.99 88.3-5.79 88.3-6.69L88.3-6.69 88.3-8.35 91.3-7.86 91.3-6.86ZM88.3-14.6L88.3-18.31Q88.3-19.21 87.96-20.01 87.61-20.8 87.03-21.39 86.44-21.97 85.65-22.31 84.86-22.66 83.95-22.66L83.95-22.66 81.95-22.66Q81.05-22.66 80.25-22.31 79.46-21.97 78.87-21.39 78.29-20.8 77.95-20.01 77.6-19.21 77.6-18.31L77.6-18.31 77.6-14.6 88.3-14.6ZM117.49-9.16L117.49-8.11Q117.49-6.32 116.77-4.76 116.05-3.2 114.85-2.03 113.64-0.85 112.04-0.18 110.44 0.49 108.66 0.49L108.66 0.49 106.14 0.49Q104.36 0.49 102.76-0.18 101.16-0.85 99.95-2.03 98.74-3.2 98.02-4.76 97.3-6.32 97.3-8.11L97.3-8.11 97.3-9.5 100.45-10.01 100.45-8.11Q100.45-6.93 100.93-5.92 101.41-4.91 102.21-4.14 103.02-3.37 104.08-2.93 105.14-2.49 106.31-2.49L106.31-2.49 108.51-2.49Q109.68-2.49 110.73-2.93 111.78-3.37 112.59-4.14 113.39-4.91 113.87-5.92 114.35-6.93 114.35-8.11L114.35-8.11 114.35-9.16Q114.35-10.96 113.64-12.16 112.93-13.35 111.76-14.2 110.59-15.04 109.11-15.63 107.63-16.21 106.07-16.8 104.51-17.38 103.03-18.09 101.55-18.8 100.38-19.86 99.21-20.92 98.5-22.46 97.79-24 97.79-26.25L97.79-26.25 97.79-26.9Q97.79-28.69 98.46-30.25 99.14-31.81 100.31-32.98 101.48-34.16 103.05-34.83 104.63-35.5 106.41-35.5L106.41-35.5 108.66-35.5Q110.44-35.5 112-34.83 113.56-34.16 114.74-32.98 115.91-31.81 116.58-30.25 117.25-28.69 117.25-26.9L117.25-26.9 117.25-26 114.1-25.49 114.1-26.9Q114.1-28.08 113.66-29.09 113.22-30.1 112.47-30.86 111.71-31.62 110.7-32.06 109.68-32.5 108.51-32.5L108.51-32.5 106.56-32.5Q105.39-32.5 104.37-32.06 103.36-31.62 102.59-30.86 101.82-30.1 101.38-29.09 100.94-28.08 100.94-26.9L100.94-26.9 100.94-26.25Q100.94-24.56 101.65-23.41 102.36-22.27 103.53-21.45 104.7-20.63 106.18-20.03 107.66-19.43 109.22-18.81 110.78-18.19 112.26-17.44 113.74-16.7 114.91-15.61 116.08-14.53 116.79-12.96 117.49-11.4 117.49-9.16L117.49-9.16ZM139.95 0L138.95 0 137.29-2.49Q136.27-1.15 134.73-0.33 133.19 0.49 131.36 0.49L131.36 0.49 130.6 0.49Q129.09 0.49 127.75-0.09 126.4-0.66 125.4-1.66 124.4-2.66 123.83-4 123.25-5.35 123.25-6.86L123.25-6.86 123.25-7.1Q123.25-8.62 123.83-9.96 124.4-11.3 125.4-12.3 126.4-13.31 127.75-13.88 129.09-14.45 130.6-14.45L130.6-14.45 136.95-14.45 136.95-18.31Q136.95-19.21 136.61-20.01 136.27-20.8 135.68-21.39 135.09-21.97 134.3-22.31 133.51-22.66 132.6-22.66L132.6-22.66 130.85-22.66Q129.94-22.66 129.15-22.31 128.36-21.97 127.77-21.39 127.18-20.8 126.84-20.01 126.5-19.21 126.5-18.31L126.5-18.31 126.5-17.41 123.5-17.9 123.5-18.14Q123.5-19.65 124.07-21 124.65-22.34 125.65-23.34 126.65-24.34 127.99-24.91 129.33-25.49 130.85-25.49L130.85-25.49 132.6-25.49Q134.12-25.49 135.46-24.91 136.8-24.34 137.8-23.34 138.81-22.34 139.38-21 139.95-19.65 139.95-18.14L139.95-18.14 139.95 0ZM136.95-6.69L136.95-12.11 130.6-12.11Q129.7-12.11 128.91-11.77 128.11-11.43 127.53-10.83 126.94-10.23 126.6-9.44 126.26-8.64 126.26-7.74L126.26-7.74 126.26-6.69Q126.26-5.79 126.6-4.99 126.94-4.2 127.53-3.61 128.11-3.03 128.91-2.69 129.7-2.34 130.6-2.34L130.6-2.34 132.6-2.34Q133.51-2.34 134.3-2.69 135.09-3.03 135.68-3.61 136.27-4.2 136.61-4.99 136.95-5.79 136.95-6.69L136.95-6.69ZM157.8 0L155.06 0Q153.7 0 152.49-0.51 151.28-1.03 150.39-1.93 149.5-2.83 148.97-4.03 148.45-5.22 148.45-6.59L148.45-6.59 148.45-22.14 143.95-22.14 143.95-25 148.45-25 148.45-31.01 151.45-31.49 151.45-25 157.8-25 157.8-22.14 151.45-22.14 151.45-6.45Q151.45-5.69 151.73-5.04 152.01-4.39 152.5-3.91 152.99-3.42 153.65-3.14 154.31-2.86 155.06-2.86L155.06-2.86 157.8-2.86 157.8 0Z" opacity="1" transform="matrix(1,0,0,1,0,0)" fill="#f1f7f9" class="wordmark-text-0" data-fill-palette-color="quaternary" id="text-0"></path></svg></g></svg></g></svg></g></svg></g><g transform="matrix(1,0,0,1,76.17224248914829,0)"><svg viewBox="0 0 60.81395624886054 68.69454826035793" height="68.69454826035793" width="60.81395624886054"><g><svg xmlns="http://www.w3.org/2000/svg" xmlns:xlink="http://www.w3.org/1999/xlink" xml:space="preserve" version="1.1" style="shape-rendering:geometricPrecision;text-rendering:geometricPrecision;image-rendering:optimizeQuality;" viewBox="19 15.25 61 68.90470053837926" x="0" y="0" fill-rule="evenodd" clip-rule="evenodd" height="68.69454826035793" width="60.81395624886054" class="icon-icon-0" data-fill-palette-color="quaternary" id="icon-0"><g fill="#f1f7f9" data-fill-palette-color="quaternary"><path class="" d="M53 16C62 21 69 25 77 30 79 31 80 32 80 35V64C80 66 79 68 77 69 68 74 62 78 53 83 50 84 49 85 46 83 37 78 30 74 22 69 20 68 19 67 19 64V35C19 33 20 32 22 30 31 25 38 21 47 16 49 15 51 15 53 16M52 51V78C60 73 68 69 75 64V37zM48 78V51L25 37V64C33 69 41 73 48 78M27 34L50 48 73 34C65 29 57 25 50 20 42 25 34 29 27 34" fill="#f1f7f9" fill-rule="nonzero" data-fill-palette-color="quaternary"></path></g></svg></g></svg></g><g></g></svg></g></svg></g></svg></g></svg></g><defs></defs></svg><rect width="342.85155851775386" height="342.85155851775386" fill="none" stroke="none" visibility="hidden"></rect></g></svg></g></svg>